<?xml version="1.0" encoding="UTF-8" standalone="no"?>
<!-- Created with Inkscape (http://www.inkscape.org/) -->

<svg
   xmlns:dc="http://purl.org/dc/elements/1.1/"
   xmlns:cc="http://creativecommons.org/ns#"
   xmlns:rdf="http://www.w3.org/1999/02/22-rdf-syntax-ns#"
   xmlns:svg="http://www.w3.org/2000/svg"
   xmlns="http://www.w3.org/2000/svg"
   xmlns:sodipodi="http://sodipodi.sourceforge.net/DTD/sodipodi-0.dtd"
   xmlns:inkscape="http://www.inkscape.org/namespaces/inkscape"
   width="650"
   height="400"
   viewBox="0 0 650.00001 400.00001"
   id="svg2"
   version="1.1"
   inkscape:version="0.91 r13725"
   sodipodi:docname="emats_logo.svg"
   inkscape:export-filename="/home/njau/projemats/media/images/emats_logo"
   inkscape:export-xdpi="90"
   inkscape:export-ydpi="90">
  <title
     id="title3389">Emats Logo</title>
  <defs
     id="defs4">
    <inkscape:path-effect
       effect="spiro"
       id="path-effect4341"
       is_visible="true" />
  </defs>
  <sodipodi:namedview
     id="base"
     pagecolor="#ffffff"
     bordercolor="#666666"
     borderopacity="1.0"
     inkscape:pageopacity="1"
     inkscape:pageshadow="2"
     inkscape:zoom="1.4"
     inkscape:cx="186.65736"
     inkscape:cy="322.20921"
     inkscape:document-units="px"
     inkscape:current-layer="layer1"
     showgrid="false"
     units="px"
     inkscape:window-width="1535"
     inkscape:window-height="876"
     inkscape:window-x="65"
     inkscape:window-y="24"
     inkscape:window-maximized="1"
     showguides="false" />
  <metadata
     id="metadata7">
    <rdf:RDF>
      <cc:Work
         rdf:about="">
        <dc:format>image/svg+xml</dc:format>
        <dc:type
           rdf:resource="http://purl.org/dc/dcmitype/StillImage" />
        <dc:title>Emats Logo</dc:title>
        <dc:date>11/07/2016</dc:date>
        <dc:creator>
          <cc:Agent>
            <dc:title>Godfrey Njau</dc:title>
          </cc:Agent>
        </dc:creator>
        <cc:license
           rdf:resource="http://creativecommons.org/licenses/by-nc-sa/3.0/" />
        <dc:rights>
          <cc:Agent>
            <dc:title>cc-by-nc-sa</dc:title>
          </cc:Agent>
        </dc:rights>
      </cc:Work>
      <cc:License
         rdf:about="http://creativecommons.org/licenses/by-nc-sa/3.0/">
        <cc:permits
           rdf:resource="http://creativecommons.org/ns#Reproduction" />
        <cc:permits
           rdf:resource="http://creativecommons.org/ns#Distribution" />
        <cc:requires
           rdf:resource="http://creativecommons.org/ns#Notice" />
        <cc:requires
           rdf:resource="http://creativecommons.org/ns#Attribution" />
        <cc:prohibits
           rdf:resource="http://creativecommons.org/ns#CommercialUse" />
        <cc:permits
           rdf:resource="http://creativecommons.org/ns#DerivativeWorks" />
        <cc:requires
           rdf:resource="http://creativecommons.org/ns#ShareAlike" />
      </cc:License>
    </rdf:RDF>
  </metadata>
  <g
     inkscape:label="Layer 1"
     inkscape:groupmode="layer"
     id="layer1"
     transform="translate(0,-652.36216)">
    <text
       xml:space="preserve"
       style="font-style:normal;font-weight:normal;font-size:216.93457031px;line-height:125%;font-family:sans-serif;letter-spacing:0px;word-spacing:0px;fill:#335aff;fill-opacity:1;stroke:none;stroke-width:1px;stroke-linecap:butt;stroke-linejoin:miter;stroke-opacity:1"
       x="196.90045"
       y="699.54529"
       id="text4136"
       sodipodi:linespacing="125%"
       transform="scale(0.84321021,1.1859439)"
       inkscape:export-xdpi="90"
       inkscape:export-ydpi="90"><tspan
         sodipodi:role="line"
         id="tspan4138"
         x="196.90045"
         y="699.54529">m</tspan></text>
    <g
       transform="matrix(1.7253969,0,0,1.7637215,-120.0998,-218.66499)"
       style="font-style:normal;font-weight:normal;font-size:138.73847961px;line-height:125%;font-family:sans-serif;letter-spacing:0px;word-spacing:0px;fill:#ffaa1a;fill-opacity:1;stroke:none;stroke-width:1px;stroke-linecap:butt;stroke-linejoin:miter;stroke-opacity:1"
       id="text4140">
      <path
         d="m 323.84503,592.49298 -12.66802,0 0,-8.06146 c -1.12905,0.76775 -2.66457,1.85165 -4.60655,3.25168 -1.89681,1.35487 -3.74847,2.43876 -5.55496,3.25168 -2.12263,1.03873 -4.56139,1.89682 -7.31628,2.57425 -2.7549,0.7226 -5.984,1.0839 -9.68731,1.0839 -6.8195,0 -12.60027,-2.25811 -17.34231,-6.77434 -4.74204,-4.51623 -7.11306,-10.27442 -7.11306,-17.27457 0,-5.73561 1.21938,-10.36474 3.65815,-13.8874 2.48392,-3.56782 6.00658,-6.36788 10.56797,-8.40018 2.30327,-1.01615 10.36476,-3.59409 14.84616,-4.12595 4.44639,-0.5277 4.87447,-1.0255 8.10357,-1.3868 3.22911,-0.3613 1.92553,-1.63658 6.51548,-1.39707 4.56673,0.2383 8.62793,0.35759 9.32671,1.5281 l -1.39757,-2.34103 c -1.48637,-2.48977 -4.96618,-2.39769 -6.00491,-4.29451 -0.99357,-1.89681 -1.67646,-4.3911 -3.57327,-5.47499 -1.80649,-1.03873 -4.9735,-0.80537 -7.13863,0.53526 -3.67256,2.27402 -0.85131,-5.05961 -3.60621,-5.05961 -3.34201,0 -7.06789,0.45162 -11.17766,1.35487 -4.10977,0.85808 -8.35502,2.12262 -12.73576,3.79363 l -0.67743,0 0,-12.93899 c 2.48393,-0.67743 6.07433,-1.42261 10.7712,-2.23554 4.69687,-0.81292 9.32601,-1.21938 13.8874,-1.21938 5.32915,0 9.95828,0.45162 13.88739,1.35487 3.97428,0.85809 7.40661,2.34844 10.297,4.47107 2.84522,2.07746 5.01301,4.76461 6.50337,8.06146 1.49035,3.29685 2.23553,7.38403 2.23553,12.26156 z m -12.66802,-18.62943 0,-21.0682 c -3.88395,0.22581 -8.46792,0.56453 -13.75191,1.01615 -5.23882,0.45162 -9.39375,1.10647 -12.46478,1.96456 -3.65815,1.03873 -6.61628,2.66457 -8.87439,4.87752 -2.25811,2.16779 -3.38717,5.17109 -3.38717,9.00988 0,4.33557 1.30971,7.60984 3.92912,9.82279 2.61941,2.16779 6.61627,3.25168 11.99058,3.25168 4.47107,0 8.55825,-0.85808 12.26156,-2.57425 3.70331,-1.76133 7.13564,-3.86137 10.29699,-6.30013 z"
         id="path4238"
         inkscape:connector-curvature="0"
         sodipodi:nodetypes="ccccccsssccssscsccssccccssccssccccccscscc"
         style="fill:#ffaa1a;fill-opacity:1" />
    </g>
    <text
       xml:space="preserve"
       style="font-style:normal;font-weight:normal;font-size:203.31941223px;line-height:125%;font-family:sans-serif;letter-spacing:0px;word-spacing:0px;fill:#335aff;fill-opacity:1;stroke:none;stroke-width:1px;stroke-linecap:butt;stroke-linejoin:miter;stroke-opacity:1"
       x="396.09607"
       y="896.66302"
       id="text4144"
       sodipodi:linespacing="125%"
       transform="scale(1.0878113,0.91927708)"
       inkscape:export-xdpi="90"
       inkscape:export-ydpi="90"><tspan
         sodipodi:role="line"
         id="tspan4146"
         x="396.09607"
         y="896.66302">t</tspan></text>
    <text
       xml:space="preserve"
       style="font-style:normal;font-weight:normal;font-size:216.96005249px;line-height:125%;font-family:sans-serif;letter-spacing:0px;word-spacing:0px;fill:#ffaa1a;fill-opacity:1;stroke:none;stroke-width:1px;stroke-linecap:butt;stroke-linejoin:miter;stroke-opacity:1"
       x="542.43958"
       y="764.80298"
       id="text4148"
       sodipodi:linespacing="125%"
       transform="scale(0.93016533,1.0750777)"><tspan
         sodipodi:role="line"
         id="tspan4150"
         x="542.43958"
         y="764.80298">s</tspan></text>
    <path
       style="fill:#fcffff;fill-opacity:1;stroke:#000000;stroke-width:1.98483801;stroke-miterlimit:4;stroke-dasharray:none;stroke-opacity:1"
       d="m 182.16349,681.43812 16.72929,0 -3.58077,5.60151 -9.56772,0 z"
       id="rect4172"
       inkscape:connector-curvature="0"
       sodipodi:nodetypes="ccccc" />
    <path
       style="fill:#fcffff;fill-opacity:1;stroke:#000000;stroke-width:1.76407695;stroke-miterlimit:4;stroke-dasharray:none;stroke-opacity:1"
       d="m 182.51606,674.64755 15.57199,0 0,4.69018 -15.57199,0 z"
       id="rect4175"
       inkscape:connector-curvature="0" />
    <rect
       style="fill:#fcffff;fill-opacity:1;stroke:#000000;stroke-width:1.74445391;stroke-miterlimit:4;stroke-dasharray:none;stroke-opacity:1"
       id="rect4178"
       width="18.852507"
       height="4.4266205"
       x="180.24475"
       y="693.28162" />
    <rect
       style="fill:#fcffff;fill-opacity:1;stroke:#000000;stroke-width:1.74445391;stroke-miterlimit:4;stroke-dasharray:none;stroke-opacity:1"
       id="rect4178-3"
       width="18.852507"
       height="4.4266205"
       x="180.24475"
       y="728.25189" />
    <rect
       style="fill:#fcffff;fill-opacity:1;stroke:#000000;stroke-width:1.74445391;stroke-miterlimit:4;stroke-dasharray:none;stroke-opacity:1"
       id="rect4178-7"
       width="18.852507"
       height="4.4266205"
       x="180.24475"
       y="785.79797" />
    <rect
       style="fill:#fcffff;fill-opacity:1;stroke:#000000;stroke-width:1.74445391;stroke-miterlimit:4;stroke-dasharray:none;stroke-opacity:1"
       id="rect4178-8"
       width="18.852507"
       height="4.4266205"
       x="180.24475"
       y="772.96075" />
    <rect
       style="fill:#fcffff;fill-opacity:1;stroke:#000000;stroke-width:1.74445391;stroke-miterlimit:4;stroke-dasharray:none;stroke-opacity:1"
       id="rect4178-9"
       width="18.852507"
       height="4.4266205"
       x="180.24475"
       y="759.23828" />
    <rect
       style="fill:#fcffff;fill-opacity:1;stroke:#000000;stroke-width:1.74445391;stroke-miterlimit:4;stroke-dasharray:none;stroke-opacity:1"
       id="rect4178-2"
       width="18.852507"
       height="4.4266205"
       x="180.24475"
       y="748.61438" />
    <rect
       style="fill:#fcffff;fill-opacity:1;stroke:#000000;stroke-width:1.74445391;stroke-miterlimit:4;stroke-dasharray:none;stroke-opacity:1"
       id="rect4178-39"
       width="18.852507"
       height="4.4266205"
       x="180.24475"
       y="738.87579" />
    <rect
       style="fill:#fcffff;fill-opacity:1;stroke:#000000;stroke-width:1.74445391;stroke-miterlimit:4;stroke-dasharray:none;stroke-opacity:1"
       id="rect4178-6"
       width="18.852507"
       height="4.4266205"
       x="180.24475"
       y="717.1853" />
    <rect
       style="fill:#fcffff;fill-opacity:1;stroke:#000000;stroke-width:1.74445391;stroke-miterlimit:4;stroke-dasharray:none;stroke-opacity:1"
       id="rect4178-0"
       width="18.852507"
       height="4.4266205"
       x="180.24475"
       y="705.2334" />
    <ellipse
       style="fill:#f70000;fill-opacity:1;stroke:#000000;stroke-width:1.74445391;stroke-miterlimit:4;stroke-dasharray:none;stroke-opacity:1"
       id="path4240"
       cx="398.78253"
       cy="722.3866"
       rx="2.1921518"
       ry="1.2173207" />
    <path
       style="fill:none;fill-rule:evenodd;stroke:#000000;stroke-width:2.67236066px;stroke-linecap:butt;stroke-linejoin:miter;stroke-opacity:1"
       d="m 478.79742,774.21452 c -2.37324,1.17389 -3.91154,1.6191 -6.437,0 -0.266,-8.53779 5.81713,-6.47608 9.87006,-9.81734 1.73192,-1.42779 2.44741,-4.99157 3.43306,-7.42932 2.31795,-5.73274 11.01192,-4.53202 15.23425,-5.83732 3.14696,-0.97288 2.08316,-6.22372 3.00393,-0.53069"
       id="path4242"
       inkscape:connector-curvature="0" />
    <path
       style="fill:none;fill-rule:evenodd;stroke:#000000;stroke-width:2.67236066px;stroke-linecap:butt;stroke-linejoin:miter;stroke-opacity:1"
       d="m 472.14585,774.74518 c 0.40146,2.1688 -1.25538,4.55028 0,6.1027 2.16592,2.67835 7.44466,0.0405 8.79723,-0.79602 0.75392,-0.46614 2.52157,1.29376 3.00395,1.59198 0.95659,0.59148 1.85374,-1.63982 3.21848,-0.79596 3.92503,2.42684 9.31813,2.48864 11.5866,7.16397"
       id="path4244"
       inkscape:connector-curvature="0"
       sodipodi:nodetypes="cscccc" />
    <path
       style="fill:none;fill-rule:evenodd;stroke:#000000;stroke-width:2.67236066px;stroke-linecap:butt;stroke-linejoin:miter;stroke-opacity:1"
       d="m 503.25801,753.2532 c 0.12187,-9.22738 9.78032,-6.30032 7.50984,2.12267 -0.60771,2.25444 -4.19001,4.91603 -5.57873,6.63334"
       id="path4246"
       inkscape:connector-curvature="0" />
    <path
       style="fill:none;fill-rule:evenodd;stroke:#000000;stroke-width:2.67236066px;stroke-linecap:butt;stroke-linejoin:miter;stroke-opacity:1"
       d="m 505.18912,752.45718 c 1.23271,1.72451 0.20618,2.92915 -0.85827,4.24536"
       id="path4248"
       inkscape:connector-curvature="0" />
    <ellipse
       style="fill:#f70000;fill-opacity:1;stroke:#000000;stroke-width:1.7444557;stroke-miterlimit:4;stroke-dasharray:none;stroke-opacity:1"
       id="path4252"
       cx="631.8736"
       cy="654.00098"
       rx="6.3560596"
       ry="2.3473132"
       transform="matrix(0.99412158,0.10826954,-0.10623289,0.99434128,0,0)" />
    <path
       style="fill:#f7ffff;fill-opacity:1;fill-rule:evenodd;stroke:none;stroke-width:1px;stroke-linecap:butt;stroke-linejoin:miter;stroke-opacity:1"
       d="m 537.81849,733.01741 c 0.7186,-8.49519 -14.81969,-8.70255 -12.40068,-6.2602 1.1231,1.13394 4.07137,-0.89749 4.96027,0 2.20368,2.22494 5.56575,5.50308 7.44041,6.2602 z"
       id="path4254"
       inkscape:connector-curvature="0" />
    <path
       style="fill:#999999;fill-opacity:1;fill-rule:evenodd;stroke:none;stroke-width:1.7728796px;stroke-linecap:butt;stroke-linejoin:miter;stroke-opacity:1"
       d="m 109.61905,797.48944 c 0.77277,21.80859 -10.59069,40.38577 -21.92153,57.54608 -8.138626,12.32577 -29.99866,26.55973 -43.843035,26.55973 -2.40227,0 -25.428959,-0.89549 -25.428959,1.77063 0,1.97966 3.35898,-2.17583 5.261151,-2.65596 13.864843,-3.49967 27.610086,-11.05541 37.705014,-21.24779 15.733457,-15.88529 30.690131,-40.64391 30.690131,-64.62865"
       id="path4260-2"
       inkscape:connector-curvature="0" />
    <path
       sodipodi:type="spiral"
       style="fill:none;fill-rule:evenodd;stroke:#000000;stroke-width:13.30000019;stroke-linecap:butt;stroke-linejoin:miter;stroke-miterlimit:4;stroke-dasharray:none;stroke-opacity:1"
       id="path4256"
       sodipodi:cx="-103.69736"
       sodipodi:cy="554.862"
       sodipodi:expansion="1.0700001"
       sodipodi:revolution="1.3"
       sodipodi:radius="50.244301"
       sodipodi:argument="-17.805387"
       sodipodi:t0="0"
       d="m -103.69736,554.862 c 2.53856,4.3663 -4.8771,5.55445 -7.44272,4.32717 -7.73841,-3.70172 -6.39286,-14.49076 -1.64188,-19.95266 8.82267,-10.14288 24.732562,-7.48209 33.197613,1.60628 12.749893,13.68872 8.603497,35.44078 -5.040491,46.8239 -18.547932,15.47445 -46.433342,9.74747 -60.723922,-8.58873 -3.19724,-4.10237 -5.71561,-8.72323 -7.46307,-13.62075"
       transform="matrix(-1.4137709,-1.0173366,-1.0076113,1.4274164,506.46551,-150.41433)" />
    <path
       style="fill:#999999;fill-opacity:1;fill-rule:evenodd;stroke:none;stroke-width:1.7728796px;stroke-linecap:butt;stroke-linejoin:miter;stroke-opacity:1"
       d="m 116.65263,796.4218 c 0.77278,21.80858 -10.59069,40.38577 -21.921526,57.54607 -8.138626,12.32578 -29.998668,26.55972 -43.84304,26.55972 -2.402264,0 -25.428963,-0.89547 -25.428963,1.77065 0,1.97965 3.358987,-2.17583 5.261165,-2.65598 13.864836,-3.49965 27.610081,-11.05539 37.705014,-21.24777 15.733452,-15.8853 30.69012,-40.64391 30.69012,-64.62865"
       id="path4260"
       inkscape:connector-curvature="0" />
    <path
       style="fill:none;fill-rule:evenodd;stroke:#000000;stroke-width:7.32670641;stroke-linecap:butt;stroke-linejoin:miter;stroke-miterlimit:4;stroke-dasharray:none;stroke-opacity:1"
       d="m 491.94902,762.77944 c 5.9273,-6.09956 2.82506,-1.0696 7.0149,-2.65596"
       id="path4277"
       inkscape:connector-curvature="0" />
    <path
       style="fill:none;fill-rule:evenodd;stroke:#000000;stroke-width:1.74445391px;stroke-linecap:butt;stroke-linejoin:miter;stroke-opacity:1"
       d="m 509.38993,759.71711 c 4.56338,-1.93525 2.96622,3.02376 2.48014,5.47765 4.01778,0.45675 0.89768,6.67122 0.15503,8.92078 -0.62432,1.89103 2.6373,3.9039 2.01512,6.41668 -1.47205,5.94505 -14.2252,17.98586 -20.61613,13.1464"
       id="path4281"
       inkscape:connector-curvature="0" />
    <path
       style="fill:none;fill-rule:evenodd;stroke:#000000;stroke-width:1.74445391px;stroke-linecap:butt;stroke-linejoin:miter;stroke-opacity:1"
       d="m 504.42965,762.53418 c -0.56493,4.88444 -2.30795,13.37591 2.48015,16.27649"
       id="path4285"
       inkscape:connector-curvature="0" />
    <path
       style="fill:none;fill-rule:evenodd;stroke:#000000;stroke-width:1.74445391px;stroke-linecap:butt;stroke-linejoin:miter;stroke-opacity:1"
       d="m 502.87958,773.95903 c 0.55223,3.12048 -2.01003,5.96778 -1.24008,9.07727 0.25601,1.03392 3.95824,8.32826 -0.77505,6.4167"
       id="path4287"
       inkscape:connector-curvature="0" />
    <path
       style="fill:none;fill-rule:evenodd;stroke:#000000;stroke-width:1.74445391px;stroke-linecap:butt;stroke-linejoin:miter;stroke-opacity:1"
       d="m 508.45987,763.31671 c -4.46669,7.16239 10.60097,18.20494 -4.65025,21.28463"
       id="path4289"
       inkscape:connector-curvature="0" />
    <ellipse
       style="fill:#f7ffff;fill-opacity:1;stroke:#000000;stroke-width:6.97781563;stroke-miterlimit:4;stroke-dasharray:none;stroke-opacity:1"
       id="path4300"
       cx="413.90842"
       cy="869.90375"
       rx="15.783492"
       ry="15.935833" />
    <ellipse
       style="fill:#f7ffff;fill-opacity:1;stroke:#000000;stroke-width:6.97781563;stroke-miterlimit:4;stroke-dasharray:none;stroke-opacity:1"
       id="path4300-5"
       cx="234.15196"
       cy="871.6745"
       rx="15.783492"
       ry="15.935833" />
    <path
       style="fill:none;fill-rule:evenodd;stroke:#000000;stroke-width:3.48890781;stroke-linecap:butt;stroke-linejoin:miter;stroke-miterlimit:4;stroke-dasharray:none;stroke-opacity:1"
       d="M 182.47689,844.69914 611.54056,834.68285"
       id="path4339"
       inkscape:path-effect="#path-effect4341"
       inkscape:original-d="M 182.47689,844.69914 C 611.54056,834.68285 611.54056,834.68285 611.54056,834.68285"
       inkscape:connector-curvature="0" />
    <flowRoot
       xml:space="preserve"
       id="flowRoot4346"
       style="font-style:normal;font-weight:normal;font-size:40px;line-height:125%;font-family:sans-serif;letter-spacing:0px;word-spacing:0px;fill:#000000;fill-opacity:1;stroke:none;stroke-width:1px;stroke-linecap:butt;stroke-linejoin:miter;stroke-opacity:1"
       transform="matrix(0.92142772,0,0,1,-42.271046,479.42601)"><flowRegion
         id="flowRegion4348"><rect
           id="rect4350"
           width="732.05566"
           height="49.551815"
           x="65.714287"
           y="418.57144" /></flowRegion><flowPara
         id="flowPara4352"
         style="font-style:normal;font-variant:normal;font-weight:normal;font-stretch:normal;font-size:40px;font-family:'Arima Madurai';-inkscape-font-specification:'Arima Madurai'">Eddie Mors African Tours and Safaris</flowPara></flowRoot>    <path
       style="fill:#fcffff;fill-opacity:1;stroke:#000000;stroke-width:1.88556433;stroke-miterlimit:4;stroke-dasharray:none;stroke-opacity:1"
       d="m 264.49443,731.49882 12.4542,-9.84097 -5.30048,-2.60217 -7.12273,5.62819 z"
       id="rect4172-2"
       inkscape:connector-curvature="0"
       sodipodi:nodetypes="ccccc" />
    <path
       style="fill:#fcffff;fill-opacity:1;stroke:#000000;stroke-width:1.88556433;stroke-miterlimit:4;stroke-dasharray:none;stroke-opacity:1"
       d="m 310.1035,731.88238 -12.45421,-9.84097 5.30049,-2.60217 7.12273,5.62819 z"
       id="rect4172-2-5"
       inkscape:connector-curvature="0"
       sodipodi:nodetypes="ccccc" />
    <path
       style="fill:none;fill-opacity:1;stroke:#00002c;stroke-width:1.54763436;stroke-miterlimit:4;stroke-dasharray:none;stroke-opacity:1"
       d="m 274.93406,774.5273 6.13248,2.86742 6.13249,2.8674 -6.07322,3.71538 -2.12967,10.21871 0.58468,3.55093 c -2.47886,-1.15906 -2.54353,-1.1893 -5.02239,-2.34836 l 1.82951,-2.42209 2.12968,-10.21871 z"
       id="rect4421"
       inkscape:connector-curvature="0"
       sodipodi:nodetypes="cccccccccc" />
    <path
       style="fill:none;fill-opacity:1;stroke:#00002c;stroke-width:1.54763436;stroke-miterlimit:4;stroke-dasharray:none;stroke-opacity:1"
       d="m 302.30892,774.5351 -6.13249,2.86741 -6.1325,2.86741 6.07323,3.71537 2.12967,10.21872 -0.58468,3.55092 c 2.47885,-1.15906 2.54353,-1.18929 5.02239,-2.34834 l -1.82951,-2.42211 -2.12968,-10.21871 z"
       id="rect4421-0"
       inkscape:connector-curvature="0"
       sodipodi:nodetypes="cccccccccc" />
    <path
       style="fill:none;fill-rule:evenodd;stroke:#000000;stroke-width:0.77381718px;stroke-linecap:butt;stroke-linejoin:miter;stroke-opacity:1"
       d="m 283.75368,776.70158 c 0.30886,-4.25552 7.42893,-7.14849 9.48408,-3.04408"
       id="path4439"
       inkscape:connector-curvature="0" />
    <path
       style="fill:none;fill-rule:evenodd;stroke:#000000;stroke-width:0.77381718px;stroke-linecap:butt;stroke-linejoin:miter;stroke-opacity:1"
       d="m 295.60879,771.79722 c -0.37474,-1.73765 -4.46714,-5.9926 -5.98402,-3.72055 -0.50325,0.75381 -1.39675,1.77135 -1.69358,1.86028"
       id="path4441"
       inkscape:connector-curvature="0" />
    <path
       style="fill:none;fill-rule:evenodd;stroke:#000000;stroke-width:0.77381718px;stroke-linecap:butt;stroke-linejoin:miter;stroke-opacity:1"
       d="m 288.49572,776.70158 c 2.31793,-2.81883 4.47439,-4.93873 5.30657,-9.30138"
       id="path4443"
       inkscape:connector-curvature="0" />
    <path
       style="fill:none;fill-rule:evenodd;stroke:#000000;stroke-width:0.77381718px;stroke-linecap:butt;stroke-linejoin:miter;stroke-opacity:1"
       d="m 283.52786,770.27518 c 1.97627,-0.6074 2.60632,-0.15491 3.72589,1.52204"
       id="path4445"
       inkscape:connector-curvature="0" />
    <path
       style="fill:none;fill-rule:evenodd;stroke:#000000;stroke-width:0.77381718px;stroke-linecap:butt;stroke-linejoin:miter;stroke-opacity:1"
       d="m 287.36666,783.80444 c 0.11375,-1.36297 0.59326,-2.4209 1.35487,-3.38232 0.15823,1.26655 0.72012,2.50925 1.24197,3.55144"
       id="path4447"
       inkscape:connector-curvature="0" />
    <flowRoot
       xml:space="preserve"
       id="flowRoot4449"
       style="font-style:normal;font-weight:normal;font-size:40px;line-height:125%;font-family:sans-serif;letter-spacing:0px;word-spacing:0px;fill:#000000;fill-opacity:1;stroke:none;stroke-width:1px;stroke-linecap:butt;stroke-linejoin:miter;stroke-opacity:1"
       transform="translate(82.832509,540.75306)"
       inkscape:export-xdpi="90"
       inkscape:export-ydpi="90"><flowRegion
         id="flowRegion4451"><rect
           id="rect4453"
           width="407.09152"
           height="39.395962"
           x="59.598999"
           y="445.94919" /></flowRegion><flowPara
         id="flowPara4455"
         style="font-style:normal;font-variant:normal;font-weight:normal;font-stretch:normal;font-family:Katibeh;-inkscape-font-specification:Katibeh">Taking you wherever the fun is</flowPara></flowRoot>    <path
       style="fill:none;fill-rule:evenodd;stroke:#000000;stroke-width:1.00502586px;stroke-linecap:butt;stroke-linejoin:miter;stroke-opacity:1"
       d="m 273.75595,727.0968 c 35.46867,40.27603 35.46867,40.27603 35.46867,40.27603"
       id="path3391"
       inkscape:connector-curvature="0" />
    <path
       style="fill:none;fill-rule:evenodd;stroke:#000000;stroke-width:1px;stroke-linecap:butt;stroke-linejoin:miter;stroke-opacity:1"
       d="m 300.23894,723.29181 c -33.33503,42.42641 -33.33503,42.42641 -33.33503,42.42641"
       id="path3391-9"
       inkscape:connector-curvature="0" />
    <path
       style="fill:none;fill-rule:evenodd;stroke:#000000;stroke-width:0.39584982px;stroke-linecap:butt;stroke-linejoin:miter;stroke-opacity:1"
       d="m 309.05853,731.65297 c -5.25992,42.13267 -5.25992,42.13267 -5.25992,42.13267"
       id="path3391-1"
       inkscape:connector-curvature="0" />
    <path
       style="fill:none;fill-rule:evenodd;stroke:#000000;stroke-width:0.38845652px;stroke-linecap:butt;stroke-linejoin:miter;stroke-opacity:1"
       d="m 267.65716,727.54243 c 4.68569,43.21087 4.68569,43.21087 4.68569,43.21087"
       id="path3391-27"
       inkscape:connector-curvature="0" />
  </g>
</svg>
